<?xml version="1.0" encoding="utf-8" ?>
<svg baseProfile="full" height="300mm" version="1.1" viewBox="0,0,200,300" width="200mm" xmlns="http://www.w3.org/2000/svg" xmlns:ev="http://www.w3.org/2001/xml-events" xmlns:xlink="http://www.w3.org/1999/xlink"><defs /><rect fill="#222222" height="300" width="200" x="0" y="0" /><text fill="#FFFFFF" style="font-size:12px; font-family:Arial; font-weight:bold;" x="10" y="20">Over 10KM Rides</text><text fill="#FFFFFF" style="font-size:4px; font-family:Arial" x="10" y="280">Runner</text><text fill="#FFFFFF" style="font-size:9px; font-family:Arial" x="10" y="290">Sawyer</text><text fill="#FFFFFF" style="font-size:4px; font-family:Arial" x="65" y="280">SPECIAL TRACKS</text><rect fill="yellow" height="2.6" width="2.6" x="65" y="283" /><text fill="#FFFFFF" style="font-size:3px; font-family:Arial" x="70" y="285.5">Over 20.0 km</text><rect fill="red" height="2.6" width="2.6" x="65" y="287" /><text fill="#FFFFFF" style="font-size:3px; font-family:Arial" x="70" y="289.5">Over 40.0 km</text><text fill="#FFFFFF" style="font-size:4px; font-family:Arial" x="120" y="280">STATISTICS</text><text fill="#FFFFFF" style="font-size:3px; font-family:Arial" x="120" y="285">Number: 5</text><text fill="#FFFFFF" style="font-size:3px; font-family:Arial" x="120" y="290">Weekly: 1.7</text><text fill="#FFFFFF" style="font-size:3px; font-family:Arial" x="141" y="285">Total: 69.5 km</text><text fill="#FFFFFF" style="font-size:3px; font-family:Arial" x="141" y="290">Avg: 13.9 km</text><text fill="#FFFFFF" style="font-size:3px; font-family:Arial" x="167" y="285">Min: 10.5 km</text><text fill="#FFFFFF" style="font-size:3px; font-family:Arial" x="167" y="290">Max: 19.1 km</text><polyline fill="none" points="80.83188818051713,74.49452045888756 77.57571517134784,75.90695412452624 77.18434822314885,75.96127827301098 76.96518273215042,75.65344121283852 77.05911079974612,70.5831073475274 77.60702452715486,63.35763265151763 77.5444058154826,54.93659742103773 72.2844340315205,34.0 67.79154146590736,35.648212274652906 56.55148271314101,36.463256671777344 53.98411553289043,37.15151348414656 49.27205747633707,37.83976764042745 43.83988423505798,39.97696098606684 32.067566432699095,43.61737543242634 28.3104437298025,45.73638843499066 22.862615810590796,50.26410963611852 20.326557986147236,54.157857955709915 19.215075853222515,63.7198187999893 19.168111819482874,69.96741414048302 19.387277310423087,71.50664317497285 20.43614073167555,74.8929003169178 21.359766729467083,85.70314153336221 22.267738049384207,88.47349996221601 25.60218444810016,93.92355673314887 26.776285292813554,97.01969427209406 30.298587826720905,102.4694901406765 33.78958100487944,106.0 34.791480392275844,105.96378999679291 37.07706336985575,104.7507506460388 42.80667549173813,101.05726664885879" stroke="#4DD2FF" stroke-linecap="round" stroke-linejoin="round" stroke-width="0.5"><title>2025-09-16 10.5km</title><desc>1758028918000</desc></polyline><polyline fill="none" points="120.38496015401324,46.21602114128473 120.53849434675067,46.14689681400341 120.72614724904997,45.39640094670176 120.72614724904997,44.2410209569789 120.98203757026931,43.144878499544575 120.97350789286429,41.42657620085811 122.36384530499345,39.11570786233642 123.14857562351972,38.10838904452976 127.0892865707574,36.40974929764343 132.58239880023757,34.513558150822064 134.45039814538904,34.0 135.12424265802838,35.35302234767005 137.54667103249812,37.535595245943114 139.2355471527262,39.74774569948204 140.52352843637345,40.80442475764721 140.6344142422604,41.16981577151455 142.40858713624766,40.53778720295668 142.79242261813488,40.547662680997746 142.9971348750987,41.288320669526 142.78389294072986,41.54508078512299 143.05684261675924,41.466077745033544 143.6965684198949,42.98687496153434 144.4983580931439,43.44113443947572 144.77130776911508,43.77689007738081 145.45368195913034,44.991525764678954 145.46221163650625,45.25815107458038 147.78228388249408,49.247568181068345 147.58610130290617,49.938787140454224 146.92078646761365,50.393014060398855 147.19373614364304,50.866987709203386 146.54548066313146,51.27183836696349 146.17017485862016,52.11115751889156 146.11046711701783,55.09315036130283 144.88219357500202,58.055304160458036 143.81598390312865,59.73381783766672 144.05481486962526,63.061138533499616 143.9268697089865,63.84111708551791 143.95245874111424,63.495557741000084 143.61127164613572,63.337587345100474 143.99510712805204,63.32771418681659 144.10599293388077,63.169743517668394 143.86716196738416,59.694323731768236 144.89072325237794,58.005935671521 145.97399227900314,55.46836151151365 146.29812001925893,55.112898352781485 147.49227485174197,54.9746623281826 154.53778836352285,55.01415835531225 156.76403415834648,55.231386217070394 161.36153026352986,55.33012599344511 161.86478122862172,55.47823546957807 162.94805025524693,56.129914478406135 163.05893606110476,56.77171528457984 163.53659799409797,57.33452172837133 163.8266070248792,57.02843441828736 164.16779411988682,57.09755099204631 163.94602250814205,56.5939862555897 163.75836960587185,56.505121619062265 163.8692554117588,56.7618414581666 164.47486250536167,55.665840481400664 163.8692554117588,55.557227097706345 163.19541089914856,55.774453743528284 161.9927263892314,55.172142303003056 161.42123800513218,55.60659683266567 160.73886381514603,57.798587743782264 160.98622445901856,58.055304160458036 162.4618586448778,58.81557571763551 162.59833348286338,59.072289443502086 157.95818899085862,67.65206138582289 156.59344061085721,72.00583274844394 156.48255480499938,73.45704647296952 157.36964125200757,78.87669368113711 157.53170512215002,80.92996004565066 157.28434447824839,82.82524430447666 156.78962319053244,83.87158330585953 157.83877350762486,85.45094157688436 158.42732124650502,85.81616452011804 159.49353091837838,88.30359235492506 167.05082507259795,102.00304530251015 168.54351861326722,105.81249222088081 169.07235861048684,106.0 170.86359085922595,105.30918007725995 174.48017406623694,103.39459633630031 174.67635664591216,103.6413231628394 175.09431083724485,105.80262338039029 175.6316805118986,105.911180570758 177.12437405250967,105.46708220687287 177.32055663212668,105.17101550332882 176.7234792158706,104.21372698748019 176.54435599100543,103.18734531783412 176.78318695750204,102.93074820623588 178.25882114336127,102.160952805345 178.58294888361706,102.28925246237486 178.85589855964645,102.87153339193173 179.34209017001558,103.34525089581439 179.61503984598676,104.23346499024774 179.47856500800117,104.4505827561079 178.40382565872278,104.776258495207" stroke="#4DD2FF" stroke-linecap="round" stroke-linejoin="round" stroke-width="0.5"><title>2025-09-14 19.1km</title><desc>1757782535000</desc></polyline><polyline fill="none" points="76.01640282280277,174.60695414434304 74.36849132180214,174.76588852176792 73.65439633792266,171.1421445492888 73.4072096128366,171.22161351997056 73.59946595464135,172.42953689891146 73.47587259206921,171.7937889158493 73.20122067519696,171.77789518312784 74.05264161742525,170.34745262023353 73.53080297546694,169.6958022229228 73.37974442122504,168.71037450961012 74.14876978832763,165.37258931265387 75.97520503535634,160.2386186314252 78.85905016219476,155.32701511275081 84.04997139045736,145.47155200701673 84.6267404158134,144.81979785111616 84.50314705324126,144.10445479369082 84.88765973685076,143.54807459529547 85.68415029568132,143.46859154803678 85.02498569525778,142.7850356719573 85.50562654971145,142.46710168714344 86.0,141.3384308146342 85.02498569525778,141.22715296297974 83.96757581538986,141.5609862800775 81.89395384321688,140.43230885993398 81.01506770937704,140.22564873061492 73.46213999629254,140.1302670402074 69.4384894145187,139.74873969628243 62.11901583062718,139.8282246364397 61.8718291054829,139.51028463305556 61.446118634426966,135.99700450625096 61.48731642193161,133.37391577758535 60.97921037574997,132.94467888202053 59.619683387398254,132.8810881304671 57.2988746901392,134.24828358233208 56.639710089657456,135.55187740149267 56.39252336451318,136.87135762574326 56.5298493229202,140.305133428119 54.70341407589149,144.81979785111616 52.931909212318715,147.79241057705076 53.22029372502584,153.801048602254 52.382605378632434,155.61313217422867 50.968148006882984,157.2185570787551 50.39137898152694,159.44387125069625 49.14171275985427,161.33536337851547 48.96318901394261,162.0188380956679 49.059317184844986,165.0388068718894 47.988174709142186,165.51563871187682 44.87087545299437,166.13551792867656 42.55006675567711,165.73815973926685 35.84855998476269,166.78718317205494 27.334350562712643,171.1580383466644 26.125882128602825,169.648120379803 21.868777417519595,162.70230982321664 15.304596605012193,157.25034750437771 14.0,155.24753805823275 14.02746519172797,154.23022818972822 14.370780087716412,153.29238978661306 18.06484836922027,149.28664373890206 16.34827388904523,142.30813445207605 15.62044630938908,137.1257139778172 15.386992180079687,133.21493928716518 15.510585542651825,131.4343915378122 14.796490558830556,129.0337994897709 15.592981117719319,126.39469544803433 15.606713713612407,125.23411147824663 15.332061796623748,126.3470003863622" stroke="#4DD2FF" stroke-linecap="round" stroke-linejoin="round" stroke-width="0.5"><title>2025-09-13 13.1km</title><desc>1757774400000</desc></polyline><polyline fill="none" points="173.4691151919542,153.7315349641285 172.16193656093674,154.2355524267914 170.43405676120892,155.43476042710245 169.742904841376,155.67807696774253 169.47245409013703,155.4521401914535 169.57762938225642,149.94266655486717 170.08848080126336,143.91158842992445 170.05843071785057,135.42948224418797 165.04006677790312,115.38709873757034 160.652754590963,117.00378736258426 149.9549248747062,117.80343415647803 147.2053422370809,118.51615967189719 142.7879799666116,119.1767318899947 137.67946577625116,121.19319973507663 134.7796327212127,121.8711447956448 126.17028380627744,124.75672707000922 122.9549248747644,126.59930235371576 119.55926544236718,129.2240687468875 117.44073455757461,131.1361248906469 115.30717863101745,134.23013414404704 114.63105175289093,138.15840241433762 114.03005008341279,144.4503965565964 114.0,149.94266655486717 115.26210350584006,154.8612272136379 115.98330550920218,164.52413648636139 116.94490818027407,167.6870567225269 120.22036727878731,173.1264478173398 121.12186978297541,175.64623500288872 124.7579298831406,181.20701352848846 128.09348914859584,184.6129012624151 129.2053422370227,184.45650994109747 132.0150250416482,182.87521189716063 140.1285475792829,177.45350781858724 147.49081803002628,173.0221799629653 159.94657762930728,163.7942235232913 178.89315525867278,156.72085822702502 186.0,155.6433174830454 185.74457429046743,155.29572224862932 180.06510851409985,155.92139316274552 179.11853088479256,152.84515582858876 173.12353923200862,154.04437356386916" stroke="#4DD2FF" stroke-linecap="round" stroke-linejoin="round" stroke-width="0.5"><title>2025-08-27 15.1km</title><desc>1756303499000</desc></polyline><polyline fill="none" points="82.66979965369683,206.55060961387062 77.64778629725333,208.48697100253776 77.66559485532343,202.4306303091871 76.50803858519066,201.503623441924 54.265149641316384,201.60662441400927 39.37719515210483,205.60302177796257 14.480831066146493,215.77905985561665 14.427405392052606,216.3764227595966 14.0,216.64420555987454 14.053425674093887,218.78645524756575 15.389067524112761,223.05028880557802 19.05763047246728,229.0648196679831 20.304229532601312,232.44276573129173 24.29334652493708,238.53940421546577 28.24684640124906,242.7204390073457 30.77566163742449,246.26292330014985 32.41404897358734,249.31105800828664 34.568884491804056,254.39804582754732 36.08261192194186,255.73670566100918 40.85530546633527,253.43008629894757 44.096463022520766,258.2286489339167 44.80880534264725,258.496376558076 50.25822409091052,255.7778950544016 52.76923076924868,255.24243228811247 56.36655948555563,254.95410559863376 59.6967598318588,253.80079474844388 68.77912441256922,247.39568140394113 72.23398466489743,243.2971267070534 76.70393272326328,240.94917369172617 80.08755874354392,238.33343968604458 82.58075686369557,236.9328753469308 83.27529062575195,234.83201072861266 86.0,230.75379972309747 84.09448429383337,228.83824810419173 83.34652485779952,227.37582556532288 78.43136284931097,214.19294982322026 77.55874350725207,209.55814170860685 77.84368043532595,208.79596313240472 81.74375463766046,206.7360067165282" stroke="#4DD2FF" stroke-linecap="round" stroke-linejoin="round" stroke-width="0.5"><title>2025-08-26 11.7km</title><desc>1756219138000</desc></polyline></svg>